<?xml version="1.0" encoding="utf-8"?>
<!-- Generator: Adobe Illustrator 16.0.0, SVG Export Plug-In . SVG Version: 6.00 Build 0)  -->
<!DOCTYPE svg PUBLIC "-//W3C//DTD SVG 1.1//EN" "http://www.w3.org/Graphics/SVG/1.1/DTD/svg11.dtd">
<svg version="1.1" id="Layer_1" xmlns="http://www.w3.org/2000/svg" xmlns:xlink="http://www.w3.org/1999/xlink" x="0px" y="0px"
	 width="16px" height="16px" viewBox="0 0 16 16" enable-background="new 0 0 16 16" xml:space="preserve">
<title>search</title>
<desc>Created with Sketch.</desc>
<g id="Octicons">
	<g id="search">
		<path id="Shape" fill="#FFFFFF" d="M15.7,13.3l-3.81-3.83C12.59,8.49,13,7.3,13,6c0-3.31-2.689-6-6-6C3.69,0,1,2.69,1,6
			c0,3.311,2.69,6,6,6c1.3,0,2.48-0.41,3.471-1.109L14.3,14.7c0.19,0.2,0.45,0.3,0.7,0.3s0.52-0.09,0.7-0.3
			c0.39-0.39,0.39-1.021,0-1.41V13.3z M7,10.7c-2.59,0-4.7-2.11-4.7-4.7S4.41,1.3,7,1.3s4.7,2.11,4.7,4.7S9.59,10.7,7,10.7L7,10.7z"
			/>
	</g>
</g>
</svg>
